<mxfile host="app.diagrams.net" modified="2021-03-18T05:01:03.141Z" agent="5.0 (X11; Linux x86_64) AppleWebKit/537.36 (KHTML, like Gecko) Chrome/89.0.4389.90 Safari/537.36" etag="q7dAmWhy6ajg0gxJBSbr" version="14.4.8" type="github">
  <diagram id="KoCWXUYG5ssMQRQ8dHVR" name="第 1 页">
    <mxGraphModel dx="1350" dy="806" grid="1" gridSize="10" guides="1" tooltips="1" connect="1" arrows="1" fold="1" page="1" pageScale="1" pageWidth="827" pageHeight="1169" math="0" shadow="0">
      <root>
        <mxCell id="0" />
        <mxCell id="1" parent="0" />
      </root>
    </mxGraphModel>
  </diagram>
</mxfile>
